<svg width="168" height="100" viewBox="0 0 168 100" fill="none" xmlns="http://www.w3.org/2000/svg">
<g clip-path="url(#clip0_1204_376)">
<g filter="url(#filter0_di_1204_376)">
<path d="M156.389 22.6064C152.099 16.6903 125.699 8.51062 84.0051 8.51062C42.3112 8.51062 15.9064 16.6903 11.6159 22.6064C7.6206 28.1265 7.32031 40.4728 7.32031 46.5957C7.32031 52.7187 7.6206 65.0709 11.6159 70.5851C15.9064 76.5071 42.3061 84.6808 84 84.6808C125.694 84.6808 152.099 76.5012 156.384 70.5851C160.379 65.0709 160.68 52.7187 160.68 46.5957C160.68 40.4728 160.385 28.1265 156.389 22.6064Z" fill="url(#paint0_linear_1204_376)"/>
</g>
<g filter="url(#filter1_f_1204_376)">
<path d="M150.111 35.2172C146.222 32.1881 122.295 28 84.5046 28C46.7146 28 22.7822 32.1881 18.8934 35.2172C15.2722 38.0435 15 44.365 15 47.5C15 50.635 15.2722 56.9595 18.8934 59.7828C22.7822 62.8149 46.71 67 84.5 67C122.29 67 146.222 62.8119 150.107 59.7828C153.728 56.9595 154 50.635 154 47.5C154 44.365 153.732 38.0435 150.111 35.2172Z" fill="#FFD875"/>
</g>
<g filter="url(#filter2_di_1204_376)">
<mask id="path-3-outside-1_1204_376" maskUnits="userSpaceOnUse" x="0.320312" y="1.51062" width="168" height="91" fill="black">
<rect fill="white" x="0.320312" y="1.51062" width="168" height="91"/>
<path d="M156.389 22.6064C152.099 16.6903 125.699 8.51062 84.0051 8.51062C42.3112 8.51062 15.9064 16.6903 11.6159 22.6064C7.6206 28.1265 7.32031 40.4728 7.32031 46.5957C7.32031 52.7187 7.6206 65.0709 11.6159 70.5851C15.9064 76.5071 42.3061 84.6808 84 84.6808C125.694 84.6808 152.099 76.5012 156.384 70.5851C160.379 65.0709 160.68 52.7187 160.68 46.5957C160.68 40.4728 160.385 28.1265 156.389 22.6064Z"/>
</mask>
<path d="M156.389 22.6064C152.099 16.6903 125.699 8.51062 84.0051 8.51062C42.3112 8.51062 15.9064 16.6903 11.6159 22.6064C7.6206 28.1265 7.32031 40.4728 7.32031 46.5957C7.32031 52.7187 7.6206 65.0709 11.6159 70.5851C15.9064 76.5071 42.3061 84.6808 84 84.6808C125.694 84.6808 152.099 76.5012 156.384 70.5851C160.379 65.0709 160.68 52.7187 160.68 46.5957C160.68 40.4728 160.385 28.1265 156.389 22.6064Z" stroke="white" stroke-width="14" shape-rendering="crispEdges" mask="url(#path-3-outside-1_1204_376)"/>
</g>
</g>
<defs>
<filter id="filter0_di_1204_376" x="-2.67969" y="6.51062" width="173.359" height="96.1702" filterUnits="userSpaceOnUse" color-interpolation-filters="sRGB">
<feFlood flood-opacity="0" result="BackgroundImageFix"/>
<feColorMatrix in="SourceAlpha" type="matrix" values="0 0 0 0 0 0 0 0 0 0 0 0 0 0 0 0 0 0 127 0" result="hardAlpha"/>
<feOffset dy="8"/>
<feGaussianBlur stdDeviation="5"/>
<feComposite in2="hardAlpha" operator="out"/>
<feColorMatrix type="matrix" values="0 0 0 0 0.588235 0 0 0 0 0.121569 0 0 0 0 0.0470588 0 0 0 0.58 0"/>
<feBlend mode="normal" in2="BackgroundImageFix" result="effect1_dropShadow_1204_376"/>
<feBlend mode="normal" in="SourceGraphic" in2="effect1_dropShadow_1204_376" result="shape"/>
<feColorMatrix in="SourceAlpha" type="matrix" values="0 0 0 0 0 0 0 0 0 0 0 0 0 0 0 0 0 0 127 0" result="hardAlpha"/>
<feOffset dy="5"/>
<feComposite in2="hardAlpha" operator="arithmetic" k2="-1" k3="1"/>
<feColorMatrix type="matrix" values="0 0 0 0 1 0 0 0 0 0.620833 0 0 0 0 0.458333 0 0 0 1 0"/>
<feBlend mode="normal" in2="shape" result="effect2_innerShadow_1204_376"/>
</filter>
<filter id="filter1_f_1204_376" x="-10" y="3" width="189" height="89" filterUnits="userSpaceOnUse" color-interpolation-filters="sRGB">
<feFlood flood-opacity="0" result="BackgroundImageFix"/>
<feBlend mode="normal" in="SourceGraphic" in2="BackgroundImageFix" result="shape"/>
<feGaussianBlur stdDeviation="12.5" result="effect1_foregroundBlur_1204_376"/>
</filter>
<filter id="filter2_di_1204_376" x="0.320312" y="1.51062" width="167.359" height="93.1702" filterUnits="userSpaceOnUse" color-interpolation-filters="sRGB">
<feFlood flood-opacity="0" result="BackgroundImageFix"/>
<feColorMatrix in="SourceAlpha" type="matrix" values="0 0 0 0 0 0 0 0 0 0 0 0 0 0 0 0 0 0 127 0" result="hardAlpha"/>
<feOffset dy="3"/>
<feComposite in2="hardAlpha" operator="out"/>
<feColorMatrix type="matrix" values="0 0 0 0 0 0 0 0 0 0 0 0 0 0 0 0 0 0 0.25 0"/>
<feBlend mode="normal" in2="BackgroundImageFix" result="effect1_dropShadow_1204_376"/>
<feBlend mode="normal" in="SourceGraphic" in2="effect1_dropShadow_1204_376" result="shape"/>
<feColorMatrix in="SourceAlpha" type="matrix" values="0 0 0 0 0 0 0 0 0 0 0 0 0 0 0 0 0 0 127 0" result="hardAlpha"/>
<feOffset/>
<feGaussianBlur stdDeviation="2"/>
<feComposite in2="hardAlpha" operator="arithmetic" k2="-1" k3="1"/>
<feColorMatrix type="matrix" values="0 0 0 0 0.622951 0 0 0 0 0.908215 0 0 0 0 0.970833 0 0 0 1 0"/>
<feBlend mode="normal" in2="shape" result="effect2_innerShadow_1204_376"/>
</filter>
<linearGradient id="paint0_linear_1204_376" x1="84" y1="8.51062" x2="84" y2="84.6808" gradientUnits="userSpaceOnUse">
<stop stop-color="#FA6D1D"/>
<stop offset="1" stop-color="#831009"/>
</linearGradient>
<clipPath id="clip0_1204_376">
<rect width="168" height="100" fill="white"/>
</clipPath>
</defs>
</svg>
