<svg width="168" height="100" viewBox="0 0 168 100" fill="none" xmlns="http://www.w3.org/2000/svg">
<g clip-path="url(#clip0_1204_380)">
<g filter="url(#filter0_di_1204_380)">
<path d="M156.389 22.6064C152.099 16.6903 125.699 8.51062 84.0051 8.51062C42.3112 8.51062 15.9064 16.6903 11.6159 22.6064C7.6206 28.1265 7.32031 40.4728 7.32031 46.5957C7.32031 52.7187 7.6206 65.0709 11.6159 70.5851C15.9064 76.5071 42.3061 84.6808 84 84.6808C125.694 84.6808 152.099 76.5012 156.384 70.5851C160.379 65.0709 160.68 52.7187 160.68 46.5957C160.68 40.4728 160.385 28.1265 156.389 22.6064Z" fill="url(#paint0_linear_1204_380)"/>
</g>
<g filter="url(#filter1_di_1204_380)">
<mask id="path-2-outside-1_1204_380" maskUnits="userSpaceOnUse" x="0.320312" y="1.51062" width="168" height="91" fill="black">
<rect fill="white" x="0.320312" y="1.51062" width="168" height="91"/>
<path d="M156.389 22.6064C152.099 16.6903 125.699 8.51062 84.0051 8.51062C42.3112 8.51062 15.9064 16.6903 11.6159 22.6064C7.6206 28.1265 7.32031 40.4728 7.32031 46.5957C7.32031 52.7187 7.6206 65.0709 11.6159 70.5851C15.9064 76.5071 42.3061 84.6808 84 84.6808C125.694 84.6808 152.099 76.5012 156.384 70.5851C160.379 65.0709 160.68 52.7187 160.68 46.5957C160.68 40.4728 160.385 28.1265 156.389 22.6064Z"/>
</mask>
<path d="M156.389 22.6064C152.099 16.6903 125.699 8.51062 84.0051 8.51062C42.3112 8.51062 15.9064 16.6903 11.6159 22.6064C7.6206 28.1265 7.32031 40.4728 7.32031 46.5957C7.32031 52.7187 7.6206 65.0709 11.6159 70.5851C15.9064 76.5071 42.3061 84.6808 84 84.6808C125.694 84.6808 152.099 76.5012 156.384 70.5851C160.379 65.0709 160.68 52.7187 160.68 46.5957C160.68 40.4728 160.385 28.1265 156.389 22.6064Z" stroke="white" stroke-width="14" shape-rendering="crispEdges" mask="url(#path-2-outside-1_1204_380)"/>
</g>
</g>
<defs>
<filter id="filter0_di_1204_380" x="-2.67969" y="6.51062" width="173.359" height="96.1702" filterUnits="userSpaceOnUse" color-interpolation-filters="sRGB">
<feFlood flood-opacity="0" result="BackgroundImageFix"/>
<feColorMatrix in="SourceAlpha" type="matrix" values="0 0 0 0 0 0 0 0 0 0 0 0 0 0 0 0 0 0 127 0" result="hardAlpha"/>
<feOffset dy="8"/>
<feGaussianBlur stdDeviation="5"/>
<feComposite in2="hardAlpha" operator="out"/>
<feColorMatrix type="matrix" values="0 0 0 0 0.588235 0 0 0 0 0.121569 0 0 0 0 0.0470588 0 0 0 0.58 0"/>
<feBlend mode="normal" in2="BackgroundImageFix" result="effect1_dropShadow_1204_380"/>
<feBlend mode="normal" in="SourceGraphic" in2="effect1_dropShadow_1204_380" result="shape"/>
<feColorMatrix in="SourceAlpha" type="matrix" values="0 0 0 0 0 0 0 0 0 0 0 0 0 0 0 0 0 0 127 0" result="hardAlpha"/>
<feOffset dy="5"/>
<feComposite in2="hardAlpha" operator="arithmetic" k2="-1" k3="1"/>
<feColorMatrix type="matrix" values="0 0 0 0 0.416667 0 0 0 0 0.0818563 0 0 0 0 0.0364583 0 0 0 1 0"/>
<feBlend mode="normal" in2="shape" result="effect2_innerShadow_1204_380"/>
</filter>
<filter id="filter1_di_1204_380" x="0.320312" y="1.51062" width="167.359" height="93.1702" filterUnits="userSpaceOnUse" color-interpolation-filters="sRGB">
<feFlood flood-opacity="0" result="BackgroundImageFix"/>
<feColorMatrix in="SourceAlpha" type="matrix" values="0 0 0 0 0 0 0 0 0 0 0 0 0 0 0 0 0 0 127 0" result="hardAlpha"/>
<feOffset dy="3"/>
<feComposite in2="hardAlpha" operator="out"/>
<feColorMatrix type="matrix" values="0 0 0 0 0 0 0 0 0 0 0 0 0 0 0 0 0 0 0.25 0"/>
<feBlend mode="normal" in2="BackgroundImageFix" result="effect1_dropShadow_1204_380"/>
<feBlend mode="normal" in="SourceGraphic" in2="effect1_dropShadow_1204_380" result="shape"/>
<feColorMatrix in="SourceAlpha" type="matrix" values="0 0 0 0 0 0 0 0 0 0 0 0 0 0 0 0 0 0 127 0" result="hardAlpha"/>
<feOffset/>
<feGaussianBlur stdDeviation="2"/>
<feComposite in2="hardAlpha" operator="arithmetic" k2="-1" k3="1"/>
<feColorMatrix type="matrix" values="0 0 0 0 0.622951 0 0 0 0 0.908215 0 0 0 0 0.970833 0 0 0 1 0"/>
<feBlend mode="normal" in2="shape" result="effect2_innerShadow_1204_380"/>
</filter>
<linearGradient id="paint0_linear_1204_380" x1="84" y1="8.51062" x2="84" y2="84.6808" gradientUnits="userSpaceOnUse">
<stop stop-color="#831009"/>
<stop offset="1" stop-color="#D84B0F"/>
</linearGradient>
<clipPath id="clip0_1204_380">
<rect width="168" height="100" fill="white"/>
</clipPath>
</defs>
</svg>
