<svg width="419" height="422" viewBox="0 0 419 422" fill="none" xmlns="http://www.w3.org/2000/svg">
<path d="M38.8135 92.4444V168.189H0.625549V1.76855H58.5454C64.4826 1.76855 69.5609 2.55177 73.7801 4.11819C77.9994 5.68462 81.3217 7.74371 83.7598 10.2828C86.1852 12.822 88.1053 16.2075 89.4949 20.4141C90.8845 24.6333 91.8066 28.8399 92.2361 33.0592C92.6656 37.2784 92.8804 42.3819 92.8804 48.3697C92.8804 51.5026 92.8299 54.0669 92.7162 56.0502C92.6025 58.0335 92.2109 60.5474 91.5414 63.5666C90.8592 66.5984 89.9118 69.1248 88.6991 71.146C87.4863 73.1672 85.642 75.1505 83.1787 77.0959C80.7153 79.0413 77.7214 80.5446 74.2223 81.5931C77.7214 82.2247 80.6269 83.3869 82.9134 85.0923C85.1999 86.7977 86.8421 88.9073 87.8527 91.4085C88.8506 93.9097 89.5328 96.2341 89.8865 98.3564C90.2402 100.479 90.4171 102.866 90.4171 105.519C90.4171 133.032 90.2781 153.927 89.9876 168.201H53.0881V103.308C53.0881 100.731 52.8229 98.6722 52.2797 97.1436C51.7491 95.6151 50.7385 94.5161 49.2731 93.8592C47.8078 93.2023 46.3929 92.7981 45.0413 92.6591C43.677 92.5202 41.6052 92.4444 38.8135 92.4444ZM39.0282 32.5791V63.6045H48.4647C53.4671 63.6045 55.9683 58.5262 55.9683 48.3571C55.9683 41.5987 54.983 37.2784 53.0124 35.3962C51.0417 33.5139 47.0625 32.5791 41.0494 32.5791H39.0282Z" fill="white"/>
<path d="M105.323 123.268V43.9736C105.323 30.1158 109.164 19.3656 116.857 11.7482C124.537 4.11818 136.109 0.202119 151.558 0C167.437 0.214752 179.211 4.13081 186.904 11.7482C194.584 19.3782 198.437 30.1158 198.437 43.9736V123.268C198.437 130.026 197.566 136.165 195.81 141.711C194.054 147.244 191.388 152.171 187.813 156.491C184.238 160.811 179.388 164.159 173.273 166.521C167.159 168.883 160.136 169.97 152.202 169.755C143.84 169.97 136.589 168.883 130.475 166.521C124.361 164.159 119.51 160.811 115.935 156.491C112.36 152.171 109.694 147.244 107.938 141.711C106.195 136.165 105.323 130.026 105.323 123.268ZM151.874 137.163C153.226 137.163 154.426 136.898 155.462 136.38C156.497 135.862 157.319 135.054 157.925 133.98C158.531 132.906 159.011 131.87 159.378 130.898C159.731 129.925 159.984 128.611 160.123 126.981C160.262 125.352 160.35 124.089 160.388 123.217C160.426 122.345 160.439 121.145 160.439 119.617C160.439 119.263 160.439 118.985 160.439 118.783V51.9068C160.439 51.4899 160.451 50.6562 160.489 49.4055C160.527 48.1549 160.527 47.2075 160.489 46.5885C160.451 45.9569 160.414 45.0347 160.376 43.822C160.338 42.6093 160.237 41.6619 160.06 41.005C159.883 40.3481 159.668 39.5017 159.416 38.5037C159.163 37.4931 158.822 36.7226 158.392 36.2046C157.963 35.6867 157.458 35.1309 156.889 34.5371C156.321 33.9434 155.601 33.5265 154.742 33.2865C153.883 33.0465 152.923 32.9202 151.849 32.9202C150.345 32.9202 149.044 33.1602 147.933 33.6529C146.821 34.1455 145.949 34.9287 145.305 36.0025C144.661 37.0889 144.13 38.0616 143.701 38.9332C143.271 39.8049 142.981 41.0934 142.842 42.7988C142.703 44.5042 142.627 45.7295 142.627 46.4622C142.627 47.1949 142.627 48.4328 142.627 50.1761C142.627 50.454 142.627 50.6941 142.627 50.9088C142.627 51.1236 142.627 51.3257 142.627 51.5404V118.354C142.627 119.882 142.64 121.107 142.678 122.004C142.715 122.914 142.804 124.24 142.943 125.971C143.082 127.714 143.36 129.129 143.751 130.203C144.143 131.289 144.661 132.413 145.305 133.601C145.949 134.788 146.821 135.673 147.933 136.266C149.07 136.873 150.371 137.163 151.874 137.163Z" fill="white"/>
<path d="M306.015 96.5247V127.967C306.015 142.456 301.796 153.093 293.358 159.889C284.919 166.685 273.12 170.071 257.961 170.071C244.52 170.071 233.581 166.332 225.142 158.841C216.704 151.35 212.485 140.713 212.485 126.918V49.7089C212.485 33.1982 216.224 20.8563 223.69 12.6705C231.155 4.48464 242.878 0.391724 258.82 0.391724C265.326 0.391724 271.339 1.17494 276.847 2.74136C282.355 4.30779 287.231 6.61953 291.488 9.68921C295.745 12.7589 299.08 16.776 301.518 21.7532C303.944 26.7304 305.169 32.4655 305.169 38.9334V68.2912H267.84V48.9635C267.84 39.0092 264.833 34.0193 258.833 34.0193C255.258 34.0193 252.896 35.1184 251.759 37.3038C250.609 39.5018 250.041 42.5462 250.041 46.4497V125.125C250.041 128.535 250.849 131.491 252.454 134.005C254.058 136.506 256.193 137.77 258.833 137.77C261.258 137.77 263.368 136.848 265.162 135.003C266.943 133.159 267.84 129.862 267.84 125.125V96.5247H306.015Z" fill="white"/>
<path d="M376.277 1.76855H414.25L393.116 77.9297L418.646 168.201H379.498L358.907 87.543V168.201H321.364V1.76855H358.693V68.3164L376.277 1.76855Z" fill="white"/>
<path d="M0.625549 320.713V178.636H43.2096C48.831 178.636 53.745 179.343 57.9517 180.771C62.1583 182.198 65.8848 184.522 69.1188 187.731C72.3527 190.94 74.816 195.386 76.4961 201.058C78.1762 206.743 79.01 213.615 79.01 221.7C79.01 228.66 78.5047 234.623 77.4941 239.587C76.4835 244.552 74.7655 248.973 72.3148 252.826C69.8767 256.692 66.4028 259.584 61.9182 261.517C57.4337 263.45 51.926 264.41 45.395 264.41H32.3078V320.688H0.625549V320.713ZM32.3078 204.507V238.842H34.1395C35.8448 238.842 37.146 238.791 38.0303 238.703C38.9145 238.615 39.9504 238.4 41.1379 238.084C42.3253 237.756 43.2096 237.225 43.7907 236.48C44.3718 235.734 44.9655 234.724 45.5718 233.448C46.1782 232.172 46.5951 230.517 46.8098 228.496C47.0246 226.475 47.1256 224.037 47.1256 221.182C47.1256 214.941 46.2793 210.596 44.6118 208.158C42.9317 205.72 40.0136 204.494 35.8701 204.494H32.3078V204.507Z" fill="white"/>
<path d="M147.048 178.636L163.167 320.713H132.028L129.742 299.314H113.446L111.437 320.713H80.109L96.5943 178.636H147.048ZM122.958 205.303H120.028L115.72 273.442H127.253L122.958 205.303Z" fill="white"/>
<path d="M173.059 320.713V178.636H215.643C221.264 178.636 226.178 179.343 230.385 180.771C234.591 182.198 238.318 184.522 241.552 187.731C244.786 190.94 247.249 195.386 248.929 201.058C250.609 206.743 251.443 213.615 251.443 221.7C251.443 228.66 250.938 234.623 249.927 239.587C248.917 244.552 247.199 248.973 244.748 252.826C242.31 256.692 238.836 259.584 234.351 261.517C229.867 263.45 224.359 264.41 217.828 264.41H204.728V320.688H173.059V320.713ZM204.741 204.507V238.842H206.573C208.278 238.842 209.579 238.791 210.463 238.703C211.348 238.615 212.383 238.4 213.571 238.084C214.758 237.756 215.643 237.225 216.224 236.48C216.805 235.734 217.399 234.724 218.005 233.448C218.611 232.172 219.028 230.517 219.243 228.496C219.458 226.475 219.559 224.037 219.559 221.182C219.559 214.941 218.712 210.596 217.045 208.158C215.365 205.72 212.447 204.494 208.303 204.494H204.741V204.507Z" fill="white"/>
<path d="M260.955 320.713V178.636H325.419V206.2H293.736V233.941H324.143V260.608H293.736V292.985H327.528V320.726L260.955 320.713Z" fill="white"/>
<path d="M372.5 256.06V320.726H339.896V178.636H389.339C394.405 178.636 398.738 179.305 402.338 180.644C405.938 181.983 408.78 183.739 410.852 185.912C412.924 188.085 414.566 190.965 415.753 194.565C416.941 198.165 417.724 201.766 418.09 205.353C418.457 208.954 418.634 213.312 418.634 218.415C418.634 221.093 418.583 223.279 418.495 224.971C418.406 226.664 418.065 228.812 417.484 231.389C416.903 233.978 416.095 236.126 415.059 237.857C414.023 239.587 412.444 241.28 410.347 242.935C408.237 244.602 405.685 245.878 402.704 246.775C405.698 247.306 408.161 248.304 410.119 249.769C412.077 251.222 413.48 253.028 414.326 255.163C415.185 257.298 415.753 259.281 416.069 261.1C416.372 262.919 416.524 264.953 416.524 267.214C416.524 290.698 416.398 308.535 416.158 320.726H384.652V265.345C384.652 263.147 384.425 261.391 383.97 260.077C383.515 258.763 382.656 257.829 381.406 257.273C380.155 256.704 378.942 256.363 377.793 256.249C376.643 256.111 374.875 256.06 372.5 256.06ZM372.677 204.949V231.439H380.736C385.006 231.439 387.141 227.094 387.141 218.415C387.141 212.642 386.295 208.966 384.627 207.362C382.947 205.758 379.549 204.949 374.42 204.949H372.677Z" fill="white"/>
<path d="M26.9011 422C17.4394 422 10.7063 419.89 6.66387 415.684C2.64674 411.477 0.625549 404.971 0.625549 396.179V387.387H20.7743V395.447C20.7743 401.232 22.3913 404.125 25.6378 404.125C27.1411 404.125 28.3285 403.557 29.2002 402.432C30.0718 401.308 30.5013 399.817 30.5013 397.973C30.5013 395.573 30.1602 393.539 29.4907 391.884C28.8212 390.229 27.798 388.663 26.421 387.172C25.0567 385.682 22.8081 383.635 19.6753 380.995L11.0473 373.719C4.09948 367.908 0.625549 361.326 0.625549 353.999C0.625549 346.028 2.72254 340.104 6.90388 336.213C11.0852 332.322 16.8456 330.377 24.1851 330.377C24.3746 330.377 24.5514 330.377 24.703 330.377C24.8546 330.377 25.8778 330.377 27.7727 330.377C29.6676 330.377 32.093 330.794 35.0616 331.64C38.0303 332.486 40.6831 333.901 42.9948 335.872C45.3066 337.843 47.0498 340.584 48.1994 344.108C49.3616 347.62 49.9427 351.915 49.9427 356.993H29.276L29.1623 351.574C29.1244 350.563 28.6822 349.654 27.8359 348.871C26.9895 348.087 26.0421 347.683 24.9936 347.683C23.6419 347.683 22.4923 348.087 21.5449 348.896C20.5975 349.704 20.1301 350.753 20.1301 352.029C20.1301 354.581 22.0376 357.36 25.8652 360.379L38.1945 370.081C40.203 371.66 41.9463 373.264 43.437 374.906C44.9276 376.536 46.1024 378.153 46.974 379.757C47.8457 381.361 48.5405 382.801 49.0837 384.103C49.6269 385.404 50.0058 386.806 50.208 388.334C50.4227 389.863 50.549 391 50.5869 391.771C50.6248 392.541 50.6501 393.552 50.6501 394.79C50.6501 397.948 50.4353 400.815 50.0185 403.392C49.589 405.969 48.8437 408.445 47.7573 410.833C46.6709 413.22 45.256 415.216 43.5001 416.808C41.7442 418.412 39.4704 419.676 36.666 420.61C33.8616 421.533 30.615 422 26.9011 422Z" fill="white"/>
<path d="M107.142 382.309V399.274C107.142 407.094 104.869 412.829 100.308 416.505C95.748 420.168 89.3812 422 81.208 422C73.957 422 68.045 419.979 63.4973 415.936C58.937 411.894 56.6632 406.159 56.6632 398.706V357.044C56.6632 348.138 58.6844 341.468 62.7141 337.059C66.7439 332.638 73.0727 330.44 81.6754 330.44C85.1873 330.44 88.4338 330.869 91.4024 331.703C94.3711 332.55 97.0112 333.8 99.3103 335.455C101.609 337.11 103.416 339.283 104.717 341.973C106.031 344.664 106.688 347.746 106.688 351.246V367.087H86.5389V356.652C86.5389 351.283 84.922 348.593 81.6754 348.593C79.7427 348.593 78.4668 349.186 77.8604 350.374C77.2414 351.561 76.9383 353.204 76.9383 355.313V397.771C76.9383 399.615 77.3678 401.207 78.2394 402.559C79.111 403.91 80.2606 404.592 81.6881 404.592C83.0018 404.592 84.1388 404.1 85.0988 403.102C86.0589 402.104 86.5516 400.335 86.5516 397.771V382.321H107.142V382.309Z" fill="white"/>
<path d="M115.417 420.989V331.173H135.098V420.989H115.417Z" fill="white"/>
<path d="M169.206 422C159.744 422 153.011 419.89 148.969 415.684C144.939 411.477 142.918 404.971 142.918 396.179V387.387H163.066V395.447C163.066 401.232 164.683 404.125 167.93 404.125C169.433 404.125 170.621 403.557 171.492 402.432C172.364 401.308 172.793 399.817 172.793 397.973C172.793 395.573 172.452 393.539 171.783 391.884C171.113 390.229 170.09 388.663 168.713 387.172C167.349 385.682 165.1 383.635 161.967 380.995L153.339 373.719C146.392 367.895 142.918 361.314 142.918 353.987C142.918 346.016 145.015 340.091 149.196 336.2C153.377 332.31 159.138 330.364 166.477 330.364C166.667 330.364 166.843 330.364 166.995 330.364C167.147 330.364 168.17 330.364 170.065 330.364C171.96 330.364 174.385 330.794 177.354 331.627C180.322 332.474 182.975 333.889 185.287 335.859C187.599 337.83 189.342 340.571 190.491 344.096C191.654 347.607 192.235 351.902 192.235 356.981H171.568L171.454 351.561C171.416 350.551 170.974 349.641 170.128 348.858C169.282 348.075 168.334 347.671 167.286 347.671C165.934 347.671 164.784 348.075 163.837 348.883C162.89 349.692 162.422 350.74 162.422 352.016C162.422 354.568 164.33 357.347 168.157 360.366L180.487 370.068C182.495 371.647 184.238 373.251 185.729 374.894C187.22 376.523 188.394 378.14 189.266 379.744C190.138 381.349 190.833 382.789 191.376 384.09C191.919 385.391 192.298 386.793 192.5 388.322C192.715 389.85 192.841 390.987 192.879 391.758C192.917 392.528 192.942 393.539 192.942 394.777C192.942 397.935 192.727 400.803 192.311 403.38C191.881 405.957 191.136 408.433 190.049 410.82C188.963 413.208 187.548 415.204 185.792 416.795C184.036 418.4 181.762 419.663 178.958 420.598C176.154 421.533 172.907 422 169.206 422Z" fill="white"/>
<path d="M224.258 422C214.796 422 208.063 419.89 204.021 415.684C199.991 411.477 197.97 404.971 197.97 396.179V387.387H218.119V395.447C218.119 401.232 219.736 404.125 222.982 404.125C224.485 404.125 225.673 403.557 226.544 402.432C227.416 401.308 227.846 399.817 227.846 397.973C227.846 395.573 227.505 393.539 226.835 391.884C226.166 390.229 225.142 388.663 223.765 387.172C222.401 385.682 220.152 383.635 217.02 380.995L208.392 373.719C201.444 367.895 197.97 361.314 197.97 353.987C197.97 346.016 200.067 340.091 204.248 336.2C208.43 332.31 214.19 330.364 221.529 330.364C221.719 330.364 221.896 330.364 222.047 330.364C222.199 330.364 223.222 330.364 225.117 330.364C227.012 330.364 229.437 330.794 232.406 331.627C235.375 332.474 238.027 333.889 240.339 335.859C242.651 337.83 244.394 340.571 245.544 344.096C246.706 347.607 247.287 351.902 247.287 356.981H226.62L226.507 351.561C226.469 350.551 226.027 349.641 225.18 348.858C224.334 348.075 223.386 347.671 222.338 347.671C220.986 347.671 219.837 348.075 218.889 348.883C217.942 349.692 217.474 350.74 217.474 352.016C217.474 354.568 219.382 357.347 223.21 360.366L235.539 370.068C237.547 371.647 239.291 373.251 240.781 374.894C242.272 376.523 243.447 378.14 244.318 379.744C245.19 381.349 245.885 382.789 246.428 384.09C246.971 385.391 247.35 386.793 247.552 388.322C247.767 389.85 247.893 390.987 247.931 391.758C247.969 392.528 247.994 393.539 247.994 394.777C247.994 397.935 247.78 400.803 247.363 403.38C246.933 405.957 246.188 408.433 245.102 410.82C244.015 413.208 242.6 415.204 240.844 416.795C239.089 418.4 236.815 419.663 234.01 420.598C231.206 421.533 227.959 422 224.258 422Z" fill="white"/>
<path d="M254.071 396.735V353.949C254.071 346.471 256.142 340.672 260.298 336.554C264.442 332.436 270.695 330.326 279.02 330.213C287.585 330.326 293.939 332.436 298.095 336.554C302.238 340.672 304.323 346.471 304.323 353.949V396.748C304.323 400.398 303.855 403.708 302.908 406.702C301.96 409.696 300.52 412.349 298.6 414.686C296.667 417.023 294.052 418.817 290.755 420.092C287.458 421.368 283.668 421.949 279.373 421.836C274.864 421.949 270.948 421.368 267.651 420.092C264.353 418.817 261.739 417.01 259.806 414.686C257.873 412.361 256.433 409.696 255.498 406.702C254.538 403.708 254.071 400.386 254.071 396.735ZM279.184 404.239C279.917 404.239 280.561 404.1 281.129 403.809C281.685 403.531 282.127 403.102 282.456 402.508C282.784 401.927 283.049 401.371 283.239 400.841C283.428 400.31 283.567 399.615 283.643 398.731C283.719 397.847 283.77 397.177 283.795 396.697C283.807 396.23 283.82 395.573 283.82 394.752C283.82 394.562 283.82 394.411 283.82 394.297V358.206C283.82 357.979 283.833 357.524 283.845 356.854C283.858 356.172 283.858 355.667 283.845 355.326C283.82 354.985 283.807 354.492 283.782 353.835C283.757 353.178 283.706 352.673 283.605 352.319C283.504 351.966 283.391 351.511 283.252 350.968C283.113 350.424 282.936 350.008 282.696 349.73C282.468 349.452 282.19 349.149 281.887 348.833C281.571 348.517 281.192 348.29 280.725 348.151C280.258 348.024 279.74 347.949 279.159 347.949C278.35 347.949 277.643 348.075 277.049 348.34C276.455 348.605 275.975 349.022 275.634 349.603C275.293 350.184 275.003 350.715 274.763 351.182C274.535 351.65 274.371 352.345 274.295 353.267C274.219 354.189 274.181 354.846 274.181 355.237C274.181 355.629 274.181 356.299 274.181 357.233C274.181 357.385 274.181 357.511 274.181 357.625C274.181 357.739 274.181 357.852 274.181 357.966V394.044C274.181 394.865 274.194 395.535 274.207 396.015C274.219 396.508 274.27 397.215 274.346 398.163C274.421 399.097 274.573 399.868 274.775 400.449C274.99 401.03 275.268 401.636 275.609 402.281C275.963 402.925 276.43 403.405 277.024 403.721C277.681 404.075 278.375 404.239 279.184 404.239Z" fill="white"/>
<path d="M333.781 380.111V420.989H313.178V331.173H344.443C347.639 331.173 350.38 331.589 352.667 332.436C354.941 333.282 356.735 334.394 358.048 335.758C359.362 337.135 360.398 338.954 361.143 341.228C361.901 343.502 362.381 345.776 362.621 348.05C362.849 350.323 362.975 353.077 362.975 356.311C362.975 358.004 362.95 359.381 362.887 360.455C362.823 361.528 362.621 362.88 362.255 364.51C361.889 366.139 361.371 367.504 360.726 368.603C360.07 369.689 359.072 370.763 357.745 371.811C356.419 372.86 354.802 373.668 352.907 374.237C354.802 374.578 356.356 375.209 357.594 376.132C358.832 377.054 359.716 378.191 360.259 379.542C360.802 380.894 361.169 382.145 361.358 383.294C361.548 384.444 361.649 385.732 361.649 387.16C361.649 402.003 361.573 413.284 361.421 420.989H341.513V385.972C341.513 384.583 341.374 383.471 341.083 382.65C340.792 381.829 340.249 381.235 339.466 380.869C338.67 380.515 337.912 380.3 337.18 380.224C336.409 380.149 335.285 380.111 333.781 380.111ZM333.895 347.797V364.548H338.986C341.689 364.548 343.041 361.806 343.041 356.311C343.041 352.66 342.51 350.336 341.449 349.325C340.388 348.315 338.241 347.797 334.994 347.797H333.895Z" fill="white"/>
<path d="M394.91 422C385.448 422 378.715 419.89 374.673 415.684C370.643 411.477 368.622 404.971 368.622 396.179V387.387H388.771V395.447C388.771 401.232 390.387 404.125 393.634 404.125C395.137 404.125 396.325 403.557 397.196 402.432C398.068 401.308 398.498 399.817 398.498 397.973C398.498 395.573 398.156 393.539 397.487 391.884C396.817 390.229 395.794 388.663 394.417 387.172C393.053 385.682 390.804 383.635 387.672 380.995L379.044 373.719C372.096 367.895 368.622 361.314 368.622 353.987C368.622 346.016 370.719 340.091 374.9 336.2C379.081 332.31 384.842 330.364 392.181 330.364C392.371 330.364 392.548 330.364 392.699 330.364C392.851 330.364 393.874 330.364 395.769 330.364C397.664 330.364 400.089 330.794 403.058 331.627C406.026 332.474 408.679 333.889 410.991 335.859C413.303 337.83 415.046 340.571 416.196 344.096C417.358 347.607 417.939 351.902 417.939 356.981H397.285L397.171 351.561C397.133 350.551 396.691 349.641 395.845 348.858C394.998 348.075 394.051 347.671 393.002 347.671C391.651 347.671 390.501 348.075 389.554 348.883C388.606 349.692 388.139 350.74 388.139 352.016C388.139 354.568 390.046 357.347 393.874 360.366L406.203 370.068C408.212 371.647 409.955 373.251 411.446 374.894C412.936 376.523 414.111 378.14 414.983 379.744C415.855 381.349 416.549 382.789 417.093 384.09C417.636 385.391 418.015 386.793 418.217 388.322C418.432 389.85 418.558 390.987 418.596 391.758C418.634 392.528 418.659 393.539 418.659 394.777C418.659 397.935 418.444 400.803 418.027 403.38C417.598 405.957 416.853 408.433 415.766 410.82C414.68 413.208 413.265 415.204 411.509 416.795C409.753 418.4 407.479 419.663 404.675 420.598C401.87 421.533 398.611 422 394.91 422Z" fill="white"/>
</svg>
